<svg xmlns="http://www.w3.org/2000/svg" height="40" viewBox="0 -960 960 960" width="40"><path fill="#73cd32" d="M368.391-299.956 480.5-413.239l112.776 113.283 51.427-51.935-112.109-113.442 112.109-113.443-51.427-52.094L480.5-517.428 368.391-630.87l-51.935 52.094 112.617 113.443-112.617 113.442 51.935 51.935Zm-101.21 179.985q-29.684 0-51.132-21.401-21.448-21.401-21.448-51.019v-543.457h-44.543v-72.309H348.79v-36.814h262.768v36.703h199.051v72.42h-44.544v543.457q0 29.618-21.447 51.019-21.448 21.401-51.132 21.401H267.181Zm426.305-615.877H267.181v543.457h426.305v-543.457Zm-426.305 0v543.457-543.457Z"/></svg>